<svg version="1.1" id="Layer_1" xmlns="http://www.w3.org/2000/svg" xmlns:xlink="http://www.w3.org/1999/xlink" x="0px" y="0px"
	 width="100%" viewBox="150 600 1750 680" enable-background="new 0 0 2048 2048" xml:space="preserve">
<path fill="#FFFFFF" opacity="1.000000" stroke="none" 
	d="
M909.000000,2049.000000 
	C606.000000,2049.000000 303.500000,2049.000000 1.000000,2049.000000 
	C1.000000,1366.333374 1.000000,683.666687 1.000000,1.000000 
	C683.666687,1.000000 1366.333374,1.000000 2049.000000,1.000000 
	C2049.000000,683.666687 2049.000000,1366.333374 2049.000000,2049.000000 
	C1669.166626,2049.000000 1289.333374,2049.000000 909.000000,2049.000000 
M1260.371216,1006.088867 
	C1260.088867,1006.309814 1259.960693,1006.599121 1259.389160,1007.265137 
	C1250.151489,1018.614990 1242.628540,1030.925415 1237.880249,1045.647095 
	C1235.938232,1052.439575 1233.996094,1059.231934 1231.596802,1066.660400 
	C1228.155273,1082.439209 1227.302368,1098.279419 1228.640259,1114.450562 
	C1230.097534,1132.063110 1235.152344,1148.493530 1242.539062,1164.264893 
	C1256.817993,1194.751709 1280.099976,1216.285645 1311.006348,1228.890137 
	C1354.835449,1246.764771 1398.983643,1244.987427 1442.197388,1226.758545 
	C1469.864990,1215.087524 1489.575195,1194.569458 1501.322388,1166.712280 
	C1503.558838,1161.408691 1503.332642,1160.872803 1497.931030,1159.489990 
	C1478.601562,1154.541504 1459.251587,1149.671387 1439.952515,1144.607178 
	C1437.268311,1143.902832 1435.851562,1144.125122 1434.368164,1146.729248 
	C1426.327759,1160.844971 1414.397705,1170.343750 1398.756836,1174.609619 
	C1370.742065,1182.250244 1344.790649,1179.181641 1323.368286,1157.705933 
	C1314.136475,1148.451172 1308.450317,1137.027222 1306.101929,1123.384033 
	C1308.247681,1123.384033 1309.711670,1123.383667 1311.175659,1123.384033 
	C1375.648926,1123.400757 1440.122314,1123.422241 1504.595581,1123.427368 
	C1511.231812,1123.427979 1512.492432,1122.350342 1512.675659,1115.640503 
	C1512.907227,1107.151123 1513.125610,1098.640625 1512.799561,1090.160400 
	C1511.763184,1063.202515 1504.795532,1038.024048 1490.001587,1015.177429 
	C1477.871948,996.445251 1462.229126,981.726440 1442.098389,971.921875 
	C1442.098389,971.921875 1442.146362,971.895691 1441.747925,971.338013 
	C1438.510254,969.857605 1435.272461,968.377197 1431.535034,966.313660 
	C1427.680542,964.903015 1423.826172,963.492371 1419.365723,961.669006 
	C1407.680542,959.411987 1396.077881,956.143555 1384.287109,955.183167 
	C1372.562500,954.228088 1360.624634,955.255188 1348.829468,956.098816 
	C1343.802612,956.458313 1338.900391,958.560303 1333.178467,959.870789 
	C1332.451172,959.986633 1331.723999,960.102478 1330.428955,960.145203 
	C1329.942139,960.405396 1329.455322,960.665588 1328.308472,960.882202 
	C1327.527832,961.221680 1326.747314,961.561096 1325.199097,961.901672 
	C1322.017700,963.123291 1318.836182,964.344971 1315.609375,965.514832 
	C1315.609375,965.514832 1315.542725,965.497192 1314.839966,965.659180 
	C1298.610474,972.203552 1283.960571,981.148132 1271.230469,994.176025 
	C1268.827271,996.806519 1266.424072,999.436951 1263.441040,1002.336304 
	C1262.574219,1003.538757 1261.707275,1004.741150 1260.371216,1006.088867 
M1105.896484,1234.569580 
	C1108.132690,1235.369263 1110.362915,1236.843872 1112.606079,1236.863647 
	C1133.767944,1237.050293 1154.931885,1237.005249 1176.095337,1236.987793 
	C1181.620605,1236.983276 1183.676270,1234.983765 1183.743774,1229.539185 
	C1183.811890,1224.041016 1183.723511,1218.541260 1183.723877,1213.042114 
	C1183.731079,1095.893188 1183.743286,978.744324 1183.745850,861.595459 
	C1183.746094,853.014893 1182.082031,851.371643 1173.509277,851.368713 
	C1154.178955,851.362122 1134.848633,851.362854 1115.518311,851.370789 
	C1105.866333,851.374756 1104.508301,852.691650 1104.510010,862.341858 
	C1104.517334,903.502014 1104.554199,944.662170 1104.580078,985.822327 
	C1104.581177,987.519287 1104.580322,989.216309 1104.580322,991.603333 
	C1103.280273,990.664490 1102.848022,990.447449 1102.538940,990.115601 
	C1075.483887,961.066589 1041.666504,951.254089 1003.184265,956.092041 
	C968.294373,960.478455 939.430420,976.750854 916.897705,1003.595642 
	C895.988220,1028.506592 885.286743,1057.714111 883.501526,1090.109009 
	C881.011658,1135.288940 894.694580,1174.596191 927.709961,1206.099487 
	C952.693359,1229.938843 983.269165,1240.776001 1017.549805,1241.612305 
	C1050.853027,1242.424805 1079.914062,1232.758911 1102.391479,1206.984131 
	C1102.858032,1206.449097 1103.615112,1206.167480 1104.670654,1205.488525 
	C1104.670654,1208.035767 1104.617188,1210.026489 1104.680298,1212.013428 
	C1104.911621,1219.308838 1105.181519,1226.603027 1105.896484,1234.569580 
M1770.985718,961.540833 
	C1770.441162,964.078979 1769.498047,966.606079 1769.426880,969.157410 
	C1769.216675,976.675537 1769.351929,984.203308 1769.351929,991.889404 
	C1768.445312,991.670227 1768.259521,991.682007 1768.170410,991.594971 
	C1767.217773,990.665100 1766.262573,989.736694 1765.341675,988.775635 
	C1743.622681,966.109375 1716.629639,955.195801 1685.677856,955.200256 
	C1636.291870,955.207336 1597.585815,976.335571 1570.931885,1017.877014 
	C1550.216064,1050.163574 1544.269165,1086.062744 1549.580322,1123.774292 
	C1554.292847,1157.234253 1568.601440,1186.118164 1593.984497,1208.678833 
	C1624.591064,1235.882202 1661.094238,1244.901733 1701.194824,1240.711914 
	C1725.739136,1238.147461 1746.897095,1228.149414 1763.989258,1210.069214 
	C1765.509277,1208.461182 1767.010864,1206.835571 1769.098877,1204.599121 
	C1769.098877,1213.699829 1769.095947,1221.827637 1769.099976,1229.955444 
	C1769.102173,1234.312744 1771.027344,1236.974976 1775.627930,1236.986938 
	C1797.620728,1237.044067 1819.613525,1237.054932 1841.606323,1237.085327 
	C1845.742188,1237.091064 1847.688354,1234.770996 1847.898315,1230.900024 
	C1848.060547,1227.910034 1847.917725,1224.903809 1847.918579,1221.904785 
	C1847.939697,1137.432007 1847.963135,1052.959229 1847.980957,968.486389 
	C1847.982666,960.755737 1846.364136,959.176025 1838.609009,959.182678 
	C1818.782227,959.199707 1798.954834,959.145264 1779.129150,959.295837 
	C1776.601196,959.315063 1774.081299,960.384155 1770.985718,961.540833 
M335.219421,914.615417 
	C316.923096,958.410767 298.648224,1002.215088 280.325226,1045.999268 
	C255.123550,1106.220581 229.877869,1166.423584 204.671326,1226.642822 
	C200.868530,1235.727783 202.077545,1237.511108 212.003510,1237.522827 
	C243.497223,1237.560059 274.991241,1237.505005 306.484497,1237.635498 
	C311.478821,1237.656250 314.466339,1235.881104 316.366486,1231.111206 
	C325.486969,1208.216064 334.866852,1185.424438 344.100189,1162.573975 
	C345.203217,1159.844238 346.110107,1157.773926 349.909698,1157.783203 
	C410.230469,1157.930298 470.551849,1157.968506 530.872437,1157.800049 
	C535.742065,1157.786377 537.822388,1159.497681 539.505005,1163.832153 
	C548.121277,1186.028320 557.091858,1208.086792 565.832336,1230.235229 
	C567.646973,1234.833252 570.073792,1237.683105 575.646729,1237.626831 
	C608.134399,1237.298828 640.624756,1237.250610 673.113831,1237.045532 
	C679.859436,1237.003052 681.182983,1234.948730 678.626587,1228.714844 
	C669.022827,1205.295166 659.328918,1181.912476 649.750671,1158.482544 
	C621.203735,1088.651855 592.661926,1018.819153 564.184814,948.959961 
	C546.394592,905.317749 528.674072,861.646851 511.042847,817.940247 
	C507.388306,808.880981 506.163818,807.648621 496.445435,807.634644 
	C460.452576,807.582703 424.459656,807.583557 388.466736,807.592834 
	C381.107391,807.594727 378.936188,809.232239 376.098633,816.085205 
	C362.592834,848.702393 349.040924,881.300598 335.219421,914.615417 
M727.292847,1131.500000 
	C727.302429,1163.500244 727.319092,1195.500488 727.316589,1227.500732 
	C727.315979,1235.524048 729.214111,1237.474976 737.376709,1237.471924 
	C764.876526,1237.461792 792.376282,1237.432251 819.876099,1237.385620 
	C828.147217,1237.371704 829.836670,1235.641113 829.837646,1227.394653 
	C829.854004,1091.062134 829.869934,954.729675 829.885864,818.397156 
	C829.886841,809.747253 827.653259,807.507996 818.872681,807.507263 
	C792.546204,807.505188 766.219788,807.519714 739.893311,807.546082 
	C729.166199,807.556824 727.336548,809.395569 727.335022,820.001892 
	C727.320312,923.501282 727.304993,1027.000610 727.292847,1131.500000 
M682.356323,682.659912 
	C676.174194,697.100220 665.846375,707.758667 651.576904,713.938721 
	C642.496216,717.871460 632.736572,720.257141 623.233887,723.182495 
	C620.299866,724.085754 617.029541,724.523132 617.054688,728.459717 
	C617.081604,732.667358 620.444092,733.275391 623.672424,733.787292 
	C624.329224,733.891418 625.007263,733.872437 625.658569,733.998108 
	C655.002075,739.657654 677.494019,753.635986 686.186218,784.162842 
	C687.961243,790.396484 689.340942,796.745789 690.790527,803.067627 
	C691.457397,805.975952 692.864502,808.564758 695.995667,807.783813 
	C697.916077,807.304749 699.637085,805.038818 700.885803,803.194763 
	C701.746460,801.923767 701.600403,799.990967 701.980652,798.371826 
	C705.585449,783.023804 710.106628,768.107727 721.499268,756.366516 
	C734.389648,743.081604 750.897095,737.378784 768.458801,733.877197 
	C771.588074,733.253357 775.166504,733.075439 775.125488,728.701538 
	C775.088623,724.762268 771.855896,724.306091 768.867615,723.539429 
	C762.268005,721.846436 755.584961,720.337585 749.172913,718.080444 
	C728.446472,710.784119 713.889099,697.105896 707.171814,675.850220 
	C704.818359,668.403503 703.182861,660.726807 700.737732,653.314026 
	C700.049744,651.228577 697.912476,648.633850 695.980652,648.164734 
	C692.620239,647.348877 692.007690,650.665955 691.240723,653.297791 
	C688.450623,662.872864 685.547180,672.414917 682.356323,682.659912 
M809.487976,649.720886 
	C808.578857,646.697510 807.827759,643.614380 806.714355,640.668213 
	C805.692078,637.962891 807.085022,633.336792 802.620850,633.159729 
	C797.945190,632.974182 798.925903,637.685669 798.317627,640.376221 
	C795.070190,654.740967 788.550049,665.751038 772.530396,668.427063 
	C769.829102,668.878296 765.143982,668.046326 765.201477,672.617432 
	C765.259155,677.198303 769.889709,676.088867 772.634949,676.630798 
	C785.242249,679.119080 793.859863,685.712769 796.788635,698.695740 
	C797.483276,701.774902 798.073914,704.915894 799.193787,707.844299 
	C799.739075,709.270142 801.393494,710.271790 802.545898,711.465454 
	C803.675171,710.239685 805.154541,709.180969 805.840210,707.743530 
	C806.603271,706.143738 806.648743,704.200256 806.997681,702.404663 
	C809.897278,687.481323 818.445618,678.413513 833.867920,676.446228 
	C835.020508,676.299255 836.341492,676.301086 837.250488,675.715698 
	C838.364197,674.998474 839.811584,673.757141 839.845703,672.701355 
	C839.879333,671.661865 838.535095,670.103699 837.422852,669.606201 
	C835.485657,668.739746 833.261902,668.514587 831.158813,668.018433 
	C821.153076,665.657837 813.557007,660.375671 809.487976,649.720886 
z"/>
<path fill="#2A3447" opacity="1.000000" stroke="none" 
	d="
M1105.666748,1234.233643 
	C1105.181519,1226.603027 1104.911621,1219.308838 1104.680298,1212.013428 
	C1104.617188,1210.026489 1104.670654,1208.035767 1104.670654,1205.488525 
	C1103.615112,1206.167480 1102.858032,1206.449097 1102.391479,1206.984131 
	C1079.914062,1232.758911 1050.853027,1242.424805 1017.549805,1241.612305 
	C983.269165,1240.776001 952.693359,1229.938843 927.709961,1206.099487 
	C894.694580,1174.596191 881.011658,1135.288940 883.501526,1090.109009 
	C885.286743,1057.714111 895.988220,1028.506592 916.897705,1003.595642 
	C939.430420,976.750854 968.294373,960.478455 1003.184265,956.092041 
	C1041.666504,951.254089 1075.483887,961.066589 1102.538940,990.115601 
	C1102.848022,990.447449 1103.280273,990.664490 1104.580322,991.603333 
	C1104.580322,989.216309 1104.581177,987.519287 1104.580078,985.822327 
	C1104.554199,944.662170 1104.517334,903.502014 1104.510010,862.341858 
	C1104.508301,852.691650 1105.866333,851.374756 1115.518311,851.370789 
	C1134.848633,851.362854 1154.178955,851.362122 1173.509277,851.368713 
	C1182.082031,851.371643 1183.746094,853.014893 1183.745850,861.595459 
	C1183.743286,978.744324 1183.731079,1095.893188 1183.723877,1213.042114 
	C1183.723511,1218.541260 1183.811890,1224.041016 1183.743774,1229.539185 
	C1183.676270,1234.983765 1181.620605,1236.983276 1176.095337,1236.987793 
	C1154.931885,1237.005249 1133.767944,1237.050293 1112.606079,1236.863647 
	C1110.362915,1236.843872 1108.132690,1235.369263 1105.666748,1234.233643 
M961.661011,1090.254761 
	C961.785339,1097.889282 960.999512,1105.669800 962.196777,1113.132202 
	C966.586914,1140.495117 980.969482,1160.804565 1007.458618,1170.430542 
	C1033.490967,1179.890747 1058.391235,1176.236450 1079.522949,1157.932739 
	C1103.355713,1137.289429 1109.291138,1110.177124 1102.796509,1080.284180 
	C1094.306274,1041.205322 1059.401855,1017.801086 1020.080017,1023.937988 
	C988.966370,1028.793823 965.033875,1055.640503 961.661011,1090.254761 
z"/>
<path fill="#2A3447" opacity="1.000000" stroke="none" 
	d="
M1771.271729,961.253845 
	C1774.081299,960.384155 1776.601196,959.315063 1779.129150,959.295837 
	C1798.954834,959.145264 1818.782227,959.199707 1838.609009,959.182678 
	C1846.364136,959.176025 1847.982666,960.755737 1847.980957,968.486389 
	C1847.963135,1052.959229 1847.939697,1137.432007 1847.918579,1221.904785 
	C1847.917725,1224.903809 1848.060547,1227.910034 1847.898315,1230.900024 
	C1847.688354,1234.770996 1845.742188,1237.091064 1841.606323,1237.085327 
	C1819.613525,1237.054932 1797.620728,1237.044067 1775.627930,1236.986938 
	C1771.027344,1236.974976 1769.102173,1234.312744 1769.099976,1229.955444 
	C1769.095947,1221.827637 1769.098877,1213.699829 1769.098877,1204.599121 
	C1767.010864,1206.835571 1765.509277,1208.461182 1763.989258,1210.069214 
	C1746.897095,1228.149414 1725.739136,1238.147461 1701.194824,1240.711914 
	C1661.094238,1244.901733 1624.591064,1235.882202 1593.984497,1208.678833 
	C1568.601440,1186.118164 1554.292847,1157.234253 1549.580322,1123.774292 
	C1544.269165,1086.062744 1550.216064,1050.163574 1570.931885,1017.877014 
	C1597.585815,976.335571 1636.291870,955.207336 1685.677856,955.200256 
	C1716.629639,955.195801 1743.622681,966.109375 1765.341675,988.775635 
	C1766.262573,989.736694 1767.217773,990.665100 1768.170410,991.594971 
	C1768.259521,991.682007 1768.445312,991.670227 1769.351929,991.889404 
	C1769.351929,984.203308 1769.216675,976.675537 1769.426880,969.157410 
	C1769.498047,966.606079 1770.441162,964.078979 1771.271729,961.253845 
M1625.933228,1093.640503 
	C1626.260864,1100.614136 1625.827515,1107.724121 1627.049561,1114.537354 
	C1632.017212,1142.234497 1646.825195,1162.590454 1674.137939,1171.421387 
	C1701.582764,1180.294922 1726.765869,1174.395020 1747.700684,1154.616699 
	C1767.133179,1136.257446 1772.153687,1112.625000 1769.071655,1086.800659 
	C1763.923462,1043.663208 1723.197510,1014.910706 1680.881226,1024.530151 
	C1650.356201,1031.469116 1627.886719,1059.367188 1625.933228,1093.640503 
z"/>
<path fill="#2A3447" opacity="1.000000" stroke="none" 
	d="
M1238.250488,1044.997803 
	C1242.628540,1030.925415 1250.151489,1018.614990 1259.684570,1007.490845 
	C1258.634766,1014.818298 1260.341187,1016.628906 1268.417358,1016.669189 
	C1267.941895,1022.124512 1269.622070,1023.898682 1274.728638,1022.487000 
	C1277.740601,1021.654297 1278.885132,1022.726379 1280.143799,1025.100220 
	C1280.883545,1026.495239 1282.357056,1028.324707 1283.655029,1028.458496 
	C1289.507812,1029.061646 1291.045532,1031.372314 1290.531006,1037.430542 
	C1290.301147,1040.136963 1291.307861,1044.451538 1293.179810,1045.507446 
	C1296.637085,1047.457642 1301.145874,1047.543701 1305.934448,1048.558472 
	C1306.974487,1053.308838 1310.633789,1051.647705 1314.216064,1050.469360 
	C1311.532349,1058.003052 1308.894043,1065.164551 1306.047363,1072.891602 
	C1349.766235,1072.891602 1392.197388,1072.891602 1434.709351,1072.891602 
	C1433.633911,1059.725586 1428.652954,1048.766724 1420.260010,1039.225586 
	C1412.704834,1030.636597 1403.170532,1025.166260 1392.976807,1021.024414 
	C1396.171753,1017.798584 1399.807617,1015.115356 1401.681641,1011.515015 
	C1403.547119,1007.931152 1404.735596,1005.666870 1409.360718,1006.788818 
	C1410.861206,1007.152832 1412.944336,1005.115479 1414.760864,1004.176575 
	C1413.610718,1002.987732 1412.579956,1001.642212 1411.278809,1000.651794 
	C1409.826660,999.546509 1408.129272,998.763672 1406.538574,997.840515 
	C1408.875488,997.314209 1411.098877,997.937805 1413.352295,998.078613 
	C1414.674927,998.161255 1416.798828,997.896179 1417.263794,997.062927 
	C1419.254028,993.496338 1423.593384,990.338623 1420.079468,985.330994 
	C1419.671997,984.750244 1420.241089,983.484314 1420.265137,983.288330 
	C1422.953369,982.149658 1424.921753,981.315979 1427.464233,980.239075 
	C1427.105225,983.234192 1424.380493,986.748840 1427.172729,987.235657 
	C1431.748047,983.980408 1434.632202,981.055603 1438.126831,979.668152 
	C1442.267578,978.024109 1443.714478,975.985168 1442.126587,971.872681 
	C1462.229126,981.726440 1477.871948,996.445251 1490.001587,1015.177429 
	C1504.795532,1038.024048 1511.763184,1063.202515 1512.799561,1090.160400 
	C1513.125610,1098.640625 1512.907227,1107.151123 1512.675659,1115.640503 
	C1512.492432,1122.350342 1511.231812,1123.427979 1504.595581,1123.427368 
	C1440.122314,1123.422241 1375.648926,1123.400757 1311.175659,1123.384033 
	C1309.711670,1123.383667 1308.247681,1123.384033 1306.101929,1123.384033 
	C1308.450317,1137.027222 1314.136475,1148.451172 1323.368286,1157.705933 
	C1344.790649,1179.181641 1370.742065,1182.250244 1398.756836,1174.609619 
	C1414.397705,1170.343750 1426.327759,1160.844971 1434.368164,1146.729248 
	C1435.851562,1144.125122 1437.268311,1143.902832 1439.952515,1144.607178 
	C1459.251587,1149.671387 1478.601562,1154.541504 1497.931030,1159.489990 
	C1503.332642,1160.872803 1503.558838,1161.408691 1501.322388,1166.712280 
	C1489.575195,1194.569458 1469.864990,1215.087524 1442.197388,1226.758545 
	C1398.983643,1244.987427 1354.835449,1246.764771 1311.006348,1228.890137 
	C1280.099976,1216.285645 1256.817993,1194.751709 1242.539062,1164.264893 
	C1235.152344,1148.493530 1230.097534,1132.063110 1228.640259,1114.450562 
	C1227.302368,1098.279419 1228.155273,1082.439209 1232.092407,1066.590698 
	C1231.550781,1072.046875 1233.949585,1075.353271 1239.224243,1076.812622 
	C1239.369019,1076.852661 1239.462769,1077.084717 1239.606689,1077.120239 
	C1241.195679,1077.513428 1243.395752,1078.696411 1244.237427,1078.067871 
	C1245.427246,1077.179443 1246.112915,1074.955444 1246.136597,1073.289917 
	C1246.205811,1068.427490 1247.735107,1067.201660 1252.265259,1068.750488 
	C1252.981812,1068.995483 1253.969727,1068.446533 1255.257080,1068.175049 
	C1254.576294,1066.897949 1254.348267,1065.684326 1253.662598,1065.311035 
	C1249.159180,1062.858521 1249.315430,1059.791016 1251.766113,1055.863892 
	C1252.445068,1054.776001 1252.458374,1052.099365 1251.698364,1051.484253 
	C1247.772949,1048.306885 1244.077637,1044.324341 1238.250488,1044.997803 
M1249.068970,1162.569458 
	C1249.374390,1162.892334 1249.679810,1163.215088 1249.985352,1163.537842 
	C1250.167480,1163.327881 1250.349487,1163.117920 1250.531616,1162.907959 
	C1250.021118,1162.605347 1249.510498,1162.302612 1249.001465,1161.215088 
	C1250.201294,1159.489746 1251.296753,1157.677124 1252.638062,1156.069824 
	C1253.515137,1155.018799 1255.334351,1154.464600 1255.716553,1153.342163 
	C1257.072388,1149.361694 1258.993042,1147.850952 1262.961792,1150.373169 
	C1263.807861,1150.910889 1265.535522,1151.145020 1266.240723,1150.646851 
	C1271.180176,1147.156372 1275.955078,1143.433105 1280.788818,1139.792725 
	C1282.470947,1138.525879 1284.182617,1136.225098 1285.860840,1136.243164 
	C1289.692139,1136.284546 1293.679688,1138.258667 1296.098633,1133.304199 
	C1296.264648,1132.964233 1298.257568,1133.715942 1299.355957,1133.584473 
	C1300.990601,1133.389038 1303.458252,1133.335327 1303.991577,1132.358521 
	C1304.786011,1130.903931 1304.456177,1128.648926 1304.111206,1126.828003 
	C1303.899658,1125.710815 1302.766602,1124.768188 1301.200195,1122.544556 
	C1305.437378,1121.874023 1308.799438,1121.685913 1311.911743,1120.705322 
	C1313.487427,1120.209106 1315.927979,1117.401978 1315.746216,1117.130005 
	C1312.180420,1111.791504 1317.880371,1106.834229 1316.190308,1101.555908 
	C1315.509399,1099.429199 1316.290283,1096.834351 1316.406006,1094.452515 
	C1316.756348,1094.221680 1317.106812,1093.990967 1317.457275,1093.760254 
	C1318.849365,1095.390747 1320.241577,1097.021240 1322.276855,1099.404907 
	C1324.417969,1096.837280 1326.471436,1094.387329 1328.509277,1091.924561 
	C1329.292358,1090.978149 1329.840088,1089.599731 1330.836060,1089.104736 
	C1337.876099,1085.606323 1338.285400,1084.530396 1335.363037,1078.458130 
	C1328.983032,1077.682983 1323.343994,1076.997803 1318.360840,1076.392334 
	C1316.325317,1080.708130 1314.848755,1084.889038 1312.454224,1088.453003 
	C1311.328857,1090.128052 1308.226807,1091.742432 1306.389771,1091.400513 
	C1302.861206,1090.743408 1300.758301,1091.989990 1298.425293,1094.123291 
	C1296.911621,1095.507446 1295.017578,1096.989746 1293.101685,1097.323242 
	C1287.386719,1098.317871 1281.576782,1098.767456 1276.710815,1099.325928 
	C1274.905884,1097.760132 1272.740112,1095.133667 1272.117554,1095.459229 
	C1266.963013,1098.153931 1268.478882,1102.171021 1271.520996,1106.285400 
	C1268.576538,1107.353271 1266.228149,1108.011841 1264.062378,1109.051025 
	C1262.305542,1109.893921 1260.767700,1111.193726 1259.132812,1112.290894 
	C1260.511353,1113.323364 1261.889893,1114.355835 1263.406372,1115.491577 
	C1263.012939,1115.805664 1262.219849,1116.189819 1261.802979,1116.822021 
	C1260.862671,1118.247803 1260.108276,1119.796143 1259.278320,1121.294678 
	C1260.716675,1121.867188 1262.155273,1122.438965 1263.593140,1123.012817 
	C1264.687622,1123.449463 1265.780884,1123.888794 1266.874756,1124.326904 
	C1266.878296,1124.770264 1266.881958,1125.213501 1266.885498,1125.656738 
	C1261.363525,1128.004150 1257.353149,1134.310547 1248.838745,1130.605103 
	C1248.838745,1133.132935 1248.114990,1135.939575 1248.960938,1136.541992 
	C1253.161011,1139.532593 1251.151489,1142.778442 1249.916992,1146.022949 
	C1249.630005,1146.777344 1248.635376,1147.849609 1248.080322,1147.785645 
	C1247.095337,1147.672241 1245.839111,1147.013550 1245.353760,1146.193726 
	C1244.739380,1145.156372 1244.781982,1143.730103 1244.648926,1143.034180 
	C1241.942993,1142.377319 1239.765747,1141.848877 1236.278076,1141.002197 
	C1237.515137,1143.103638 1238.224243,1144.222168 1238.847778,1145.386597 
	C1239.923096,1147.394043 1241.696289,1149.378052 1241.840942,1151.464478 
	C1242.194824,1156.569214 1245.359985,1159.351074 1249.068970,1162.569458 
z"/>
<path fill="#6689D4" opacity="1.000000" stroke="none" 
	d="
M335.362427,914.260498 
	C349.040924,881.300598 362.592834,848.702393 376.098633,816.085205 
	C378.936188,809.232239 381.107391,807.594727 388.466736,807.592834 
	C424.459656,807.583557 460.452576,807.582703 496.445435,807.634644 
	C506.163818,807.648621 507.388306,808.880981 511.042847,817.940247 
	C528.674072,861.646851 546.394592,905.317749 564.184814,948.959961 
	C592.661926,1018.819153 621.203735,1088.651855 649.750671,1158.482544 
	C659.328918,1181.912476 669.022827,1205.295166 678.626587,1228.714844 
	C681.182983,1234.948730 679.859436,1237.003052 673.113831,1237.045532 
	C640.624756,1237.250610 608.134399,1237.298828 575.646729,1237.626831 
	C570.073792,1237.683105 567.646973,1234.833252 565.832336,1230.235229 
	C557.091858,1208.086792 548.121277,1186.028320 539.505005,1163.832153 
	C537.822388,1159.497681 535.742065,1157.786377 530.872437,1157.800049 
	C470.551849,1157.968506 410.230469,1157.930298 349.909698,1157.783203 
	C346.110107,1157.773926 345.203217,1159.844238 344.100189,1162.573975 
	C334.866852,1185.424438 325.486969,1208.216064 316.366486,1231.111206 
	C314.466339,1235.881104 311.478821,1237.656250 306.484497,1237.635498 
	C274.991241,1237.505005 243.497223,1237.560059 212.003510,1237.522827 
	C202.077545,1237.511108 200.868530,1235.727783 204.671326,1226.642822 
	C229.877869,1166.423584 255.123550,1106.220581 280.325226,1045.999268 
	C298.648224,1002.215088 316.923096,958.410767 335.362427,914.260498 
M618.500000,1234.995117 
	C635.958374,1234.668335 653.416992,1234.353027 670.875000,1234.006958 
	C675.872314,1233.907837 677.285645,1231.757446 675.403748,1226.942139 
	C673.661133,1222.483643 671.703857,1218.109375 669.881714,1213.681274 
	C657.522461,1183.645508 645.219299,1153.586426 632.807434,1123.572388 
	C622.825317,1099.433960 612.588196,1075.400269 602.710876,1051.219482 
	C596.775452,1036.688721 591.473206,1021.900330 585.603149,1007.341980 
	C575.255920,981.679871 564.728149,956.090271 554.207458,930.498474 
	C545.457886,909.214905 536.518921,888.008728 527.834839,866.698608 
	C521.205383,850.430420 514.821045,834.062134 508.373352,817.720337 
	C505.604156,810.701721 504.650238,809.992310 496.969177,809.991211 
	C460.803253,809.986206 424.636749,810.082581 388.472046,809.871521 
	C383.274292,809.841187 380.272491,812.031189 378.367706,816.290466 
	C374.870636,824.110291 371.427856,831.960449 368.214294,839.899902 
	C359.602173,861.177002 351.254669,882.561951 342.539886,903.796509 
	C337.658508,915.690430 332.148041,927.324646 327.113922,939.157898 
	C319.410034,957.266846 311.820343,975.424988 304.281586,993.603455 
	C298.401489,1007.782471 292.754852,1022.058594 286.857208,1036.230225 
	C278.057373,1057.375610 269.096039,1078.453613 260.261200,1099.584473 
	C247.811996,1129.360107 235.407410,1159.154175 223.000351,1188.947266 
	C217.326874,1202.571045 211.774429,1216.245728 205.990524,1229.822144 
	C204.307190,1233.773560 205.597443,1235.014282 209.461533,1235.012329 
	C242.127518,1234.996338 274.794006,1235.082031 307.458313,1234.847900 
	C309.590820,1234.832642 312.829041,1232.926147 313.647736,1231.062500 
	C319.035187,1218.797729 323.925323,1206.313721 328.926849,1193.880737 
	C333.355194,1182.872314 337.708557,1171.833740 342.113678,1160.816040 
	C343.774261,1156.662842 346.544434,1154.734497 351.342987,1154.924438 
	C365.959320,1155.503296 380.593231,1155.988770 395.218201,1155.935547 
	C440.844025,1155.769165 486.469147,1155.368896 532.093750,1154.964966 
	C536.975037,1154.921631 539.563660,1156.930908 541.156738,1161.565552 
	C544.605042,1171.597534 548.394409,1181.520630 552.321289,1191.377808 
	C557.400024,1204.126343 562.893738,1216.710571 567.896667,1229.487671 
	C569.468567,1233.502319 571.598999,1235.177734 576.002380,1235.100952 
	C589.831360,1234.860107 603.666931,1235.001709 618.500000,1234.995117 
z"/>
<path fill="#2C374B" opacity="1.000000" stroke="none" 
	d="
M1442.112549,971.897278 
	C1443.714478,975.985168 1442.267578,978.024109 1438.126831,979.668152 
	C1434.632202,981.055603 1431.748047,983.980408 1427.172729,987.235657 
	C1424.380493,986.748840 1427.105225,983.234192 1427.464233,980.239075 
	C1424.921753,981.315979 1422.953369,982.149658 1420.265137,983.288330 
	C1420.241089,983.484314 1419.671997,984.750244 1420.079468,985.330994 
	C1423.593384,990.338623 1419.254028,993.496338 1417.263794,997.062927 
	C1416.798828,997.896179 1414.674927,998.161255 1413.352295,998.078613 
	C1411.098877,997.937805 1408.875488,997.314209 1406.538574,997.840515 
	C1408.129272,998.763672 1409.826660,999.546509 1411.278809,1000.651794 
	C1412.579956,1001.642212 1413.610718,1002.987732 1414.760864,1004.176575 
	C1412.944336,1005.115479 1410.861206,1007.152832 1409.360718,1006.788818 
	C1404.735596,1005.666870 1403.547119,1007.931152 1401.681641,1011.515015 
	C1399.807617,1015.115356 1396.171753,1017.798584 1392.588623,1021.029297 
	C1380.449463,1017.862122 1368.905640,1017.408569 1357.077759,1019.324341 
	C1355.629028,1017.768799 1354.250122,1016.649719 1353.081543,1015.342590 
	C1349.232178,1011.036926 1345.102295,1006.918518 1341.756348,1002.244141 
	C1338.364502,997.505432 1329.478149,995.469421 1334.181274,986.344055 
	C1332.166382,986.208008 1330.611694,985.696106 1329.340332,986.092651 
	C1325.327637,987.344482 1323.287964,986.340149 1322.217896,982.021729 
	C1321.893433,980.711487 1318.436523,978.963135 1316.969238,979.377930 
	C1312.572388,980.620911 1309.965088,978.456665 1308.439209,975.315491 
	C1306.622559,971.575806 1310.860352,970.520264 1312.688843,968.446960 
	C1313.592773,967.421936 1314.588501,966.477844 1315.542725,965.497192 
	C1315.542725,965.497192 1315.609375,965.514832 1316.055908,965.674194 
	C1319.657227,964.522522 1322.812012,963.211548 1325.966675,961.900513 
	C1326.747314,961.561096 1327.527832,961.221680 1328.789673,961.137939 
	C1329.846069,961.001892 1330.421387,960.610046 1330.996704,960.218262 
	C1331.723999,960.102478 1332.451172,959.986633 1333.746948,960.158936 
	C1337.160889,963.261353 1341.506348,965.684387 1342.374634,969.014221 
	C1343.062744,971.652588 1344.152588,972.476135 1345.745972,974.004272 
	C1349.059326,977.182068 1352.689941,980.422302 1354.769043,984.382996 
	C1356.850952,988.348450 1357.201294,993.222961 1358.310547,997.698975 
	C1358.755127,997.328735 1359.199829,996.958496 1359.644409,996.588257 
	C1362.433716,997.511475 1365.205566,998.492920 1368.021118,999.328003 
	C1369.085205,999.643616 1370.277954,999.847839 1371.363403,999.712097 
	C1375.291382,999.221008 1379.197632,998.556519 1383.114136,997.971130 
	C1390.717041,996.834778 1395.490967,991.972290 1397.104126,984.020874 
	C1397.308472,983.013245 1398.889893,981.319824 1399.299194,981.463684 
	C1405.473267,983.633850 1407.317871,977.761536 1408.477661,974.915894 
	C1410.905029,968.959717 1412.955200,963.572510 1419.971680,962.081726 
	C1423.826172,963.492371 1427.680542,964.903015 1431.825195,966.961548 
	C1435.458984,969.038208 1438.802734,970.466980 1442.146362,971.895691 
	C1442.146362,971.895691 1442.098389,971.921875 1442.112549,971.897278 
z"/>
<path fill="#6689D4" opacity="1.000000" stroke="none" 
	d="
M727.291321,1131.000000 
	C727.304993,1027.000610 727.320312,923.501282 727.335022,820.001892 
	C727.336548,809.395569 729.166199,807.556824 739.893311,807.546082 
	C766.219788,807.519714 792.546204,807.505188 818.872681,807.507263 
	C827.653259,807.507996 829.886841,809.747253 829.885864,818.397156 
	C829.869934,954.729675 829.854004,1091.062134 829.837646,1227.394653 
	C829.836670,1235.641113 828.147217,1237.371704 819.876099,1237.385620 
	C792.376282,1237.432251 764.876526,1237.461792 737.376709,1237.471924 
	C729.214111,1237.474976 727.315979,1235.524048 727.316589,1227.500732 
	C727.319092,1195.500488 727.302429,1163.500244 727.291321,1131.000000 
M819.184509,809.969666 
	C792.355347,809.968201 765.526245,809.965759 738.697083,809.965881 
	C730.156311,809.965942 729.969727,810.151428 729.969604,818.634094 
	C729.967957,926.371521 729.966553,1034.108887 729.966980,1141.846313 
	C729.967102,1170.508301 729.969849,1199.170410 729.980286,1227.832397 
	C729.982666,1234.258423 730.721497,1235.003540 737.167236,1235.005371 
	C758.663757,1235.011597 780.160278,1235.000366 801.656799,1234.991821 
	C808.240845,1234.989258 814.826904,1235.064453 821.408142,1234.923828 
	C824.444336,1234.859009 826.952637,1233.907471 827.041565,1230.067261 
	C827.218506,1222.438232 827.786438,1214.811890 827.758301,1207.186035 
	C827.717163,1196.026855 827.218201,1184.869995 827.081970,1173.710083 
	C827.043884,1170.589600 827.868164,1167.458374 827.826660,1164.338257 
	C827.684143,1153.622803 827.325928,1142.910278 827.079590,1132.196045 
	C827.064697,1131.547852 827.390076,1130.896973 827.416626,1130.241821 
	C827.591309,1125.935547 827.906982,1121.624878 827.833862,1117.321411 
	C827.725342,1110.938110 827.072937,1104.557739 827.119629,1098.179688 
	C827.195679,1087.800903 827.889160,1077.424927 827.878296,1067.048218 
	C827.866882,1056.169067 827.094177,1045.290405 827.094604,1034.411621 
	C827.094971,1023.692261 827.890686,1012.972839 827.889282,1002.253540 
	C827.887939,991.374634 827.230225,980.497559 827.061523,969.616516 
	C826.908386,959.736572 826.952148,949.851868 827.038452,939.970398 
	C827.313232,908.515503 827.741394,877.061584 827.904663,845.606201 
	C827.955017,835.895691 827.312866,826.182556 827.055908,816.468872 
	C826.934204,811.869019 824.546204,809.857361 819.184509,809.969666 
z"/>
<path fill="#2A3447" opacity="1.000000" stroke="none" 
	d="
M1315.191406,965.578186 
	C1314.588501,966.477844 1313.592773,967.421936 1312.688843,968.446960 
	C1310.860352,970.520264 1306.622559,971.575806 1308.439209,975.315491 
	C1309.965088,978.456665 1312.572388,980.620911 1316.969238,979.377930 
	C1318.436523,978.963135 1321.893433,980.711487 1322.217896,982.021729 
	C1323.287964,986.340149 1325.327637,987.344482 1329.340332,986.092651 
	C1330.611694,985.696106 1332.166382,986.208008 1334.181274,986.344055 
	C1329.478149,995.469421 1338.364502,997.505432 1341.756348,1002.244141 
	C1345.102295,1006.918518 1349.232178,1011.036926 1353.081543,1015.342590 
	C1354.250122,1016.649719 1355.629028,1017.768799 1356.747803,1019.468018 
	C1342.497070,1023.280884 1330.119751,1029.458862 1321.047852,1040.770996 
	C1321.672607,1034.178833 1317.338379,1031.213135 1313.157959,1028.183594 
	C1309.030518,1025.192505 1304.853760,1022.269409 1299.818726,1018.691040 
	C1296.290649,1019.255920 1294.587280,1018.502258 1293.215088,1013.723938 
	C1292.493042,1011.209778 1291.995483,1010.072327 1288.987915,1010.452271 
	C1288.046509,1010.571228 1285.402222,1006.933960 1285.786255,1006.210449 
	C1287.939453,1002.155945 1285.387085,1001.635315 1282.575317,1000.948853 
	C1280.312500,1000.396301 1278.500732,999.741333 1279.409424,996.534058 
	C1279.607422,995.834961 1277.181030,993.985840 1275.674927,993.352539 
	C1274.663208,992.927185 1273.143433,993.710205 1271.851074,993.952515 
	C1283.960571,981.148132 1298.610474,972.203552 1315.191406,965.578186 
z"/>
<path fill="#2A3447" opacity="1.000000" stroke="none" 
	d="
M1419.668701,961.875366 
	C1412.955200,963.572510 1410.905029,968.959717 1408.477661,974.915894 
	C1407.317871,977.761536 1405.473267,983.633850 1399.299194,981.463684 
	C1398.889893,981.319824 1397.308472,983.013245 1397.104126,984.020874 
	C1395.490967,991.972290 1390.717041,996.834778 1383.114136,997.971130 
	C1379.197632,998.556519 1375.291382,999.221008 1371.363403,999.712097 
	C1370.277954,999.847839 1369.085205,999.643616 1368.021118,999.328003 
	C1365.205566,998.492920 1362.433716,997.511475 1359.644409,996.588257 
	C1359.199829,996.958496 1358.755127,997.328735 1358.310547,997.698975 
	C1357.201294,993.222961 1356.850952,988.348450 1354.769043,984.382996 
	C1352.689941,980.422302 1349.059326,977.182068 1345.745972,974.004272 
	C1344.152588,972.476135 1343.062744,971.652588 1342.374634,969.014221 
	C1341.506348,965.684387 1337.160889,963.261353 1334.128418,960.158813 
	C1338.900391,958.560303 1343.802612,956.458313 1348.829468,956.098816 
	C1360.624634,955.255188 1372.562500,954.228088 1384.287109,955.183167 
	C1396.077881,956.143555 1407.680542,959.411987 1419.668701,961.875366 
z"/>
<path fill="#2C374B" opacity="1.000000" stroke="none" 
	d="
M1271.540771,994.064331 
	C1273.143433,993.710205 1274.663208,992.927185 1275.674927,993.352539 
	C1277.181030,993.985840 1279.607422,995.834961 1279.409424,996.534058 
	C1278.500732,999.741333 1280.312500,1000.396301 1282.575317,1000.948853 
	C1285.387085,1001.635315 1287.939453,1002.155945 1285.786255,1006.210449 
	C1285.402222,1006.933960 1288.046509,1010.571228 1288.987915,1010.452271 
	C1291.995483,1010.072327 1292.493042,1011.209778 1293.215088,1013.723938 
	C1294.587280,1018.502258 1296.290649,1019.255920 1299.818726,1018.691040 
	C1304.853760,1022.269409 1309.030518,1025.192505 1313.157959,1028.183594 
	C1317.338379,1031.213135 1321.672607,1034.178833 1320.967896,1041.074707 
	C1319.710205,1043.239746 1318.514404,1044.675537 1316.922363,1046.130371 
	C1316.059570,1047.228882 1315.592896,1048.308472 1315.071777,1049.591797 
	C1314.820190,1050.033081 1314.568237,1050.133545 1314.261475,1050.097168 
	C1310.633789,1051.647705 1306.974487,1053.308838 1305.934448,1048.558472 
	C1301.145874,1047.543701 1296.637085,1047.457642 1293.179810,1045.507446 
	C1291.307861,1044.451538 1290.301147,1040.136963 1290.531006,1037.430542 
	C1291.045532,1031.372314 1289.507812,1029.061646 1283.655029,1028.458496 
	C1282.357056,1028.324707 1280.883545,1026.495239 1280.143799,1025.100220 
	C1278.885132,1022.726379 1277.740601,1021.654297 1274.728638,1022.487000 
	C1269.622070,1023.898682 1267.941895,1022.124512 1268.417358,1016.669189 
	C1260.341187,1016.628906 1258.634766,1014.818298 1259.983398,1007.336670 
	C1259.960693,1006.599121 1260.088867,1006.309814 1260.970093,1005.999390 
	C1262.386230,1004.629028 1263.203491,1003.348206 1264.020874,1002.067383 
	C1266.424072,999.436951 1268.827271,996.806519 1271.540771,994.064331 
z"/>
<path fill="#6689D4" opacity="1.000000" stroke="none" 
	d="
M682.521362,682.314697 
	C685.547180,672.414917 688.450623,662.872864 691.240723,653.297791 
	C692.007690,650.665955 692.620239,647.348877 695.980652,648.164734 
	C697.912476,648.633850 700.049744,651.228577 700.737732,653.314026 
	C703.182861,660.726807 704.818359,668.403503 707.171814,675.850220 
	C713.889099,697.105896 728.446472,710.784119 749.172913,718.080444 
	C755.584961,720.337585 762.268005,721.846436 768.867615,723.539429 
	C771.855896,724.306091 775.088623,724.762268 775.125488,728.701538 
	C775.166504,733.075439 771.588074,733.253357 768.458801,733.877197 
	C750.897095,737.378784 734.389648,743.081604 721.499268,756.366516 
	C710.106628,768.107727 705.585449,783.023804 701.980652,798.371826 
	C701.600403,799.990967 701.746460,801.923767 700.885803,803.194763 
	C699.637085,805.038818 697.916077,807.304749 695.995667,807.783813 
	C692.864502,808.564758 691.457397,805.975952 690.790527,803.067627 
	C689.340942,796.745789 687.961243,790.396484 686.186218,784.162842 
	C677.494019,753.635986 655.002075,739.657654 625.658569,733.998108 
	C625.007263,733.872437 624.329224,733.891418 623.672424,733.787292 
	C620.444092,733.275391 617.081604,732.667358 617.054688,728.459717 
	C617.029541,724.523132 620.299866,724.085754 623.233887,723.182495 
	C632.736572,720.257141 642.496216,717.871460 651.576904,713.938721 
	C665.846375,707.758667 676.174194,697.100220 682.521362,682.314697 
M649.660095,738.815674 
	C651.945862,740.105408 654.156067,741.557861 656.529358,742.658936 
	C674.220276,750.866333 683.222778,765.708618 688.111572,783.742310 
	C689.747437,789.776489 691.341309,795.826416 693.202576,801.791626 
	C693.597168,803.056458 695.074097,803.983582 696.725769,805.811523 
	C699.416443,797.304138 701.929871,790.011353 704.027283,782.600830 
	C709.941956,761.703064 723.143433,747.246033 742.995422,739.036438 
	C750.729431,735.838257 759.038208,734.047852 767.011719,731.395264 
	C768.475098,730.908447 769.584534,729.357849 770.857361,728.298340 
	C769.580627,727.519470 768.397461,726.362854 767.012756,726.019897 
	C752.817078,722.503845 739.027405,717.998596 727.006958,709.349792 
	C712.704041,699.058716 706.927795,683.571289 702.019165,667.612183 
	C700.320190,662.088318 698.679810,656.546448 696.592163,649.616943 
	C695.070068,651.986389 694.244141,652.806946 693.964050,653.783936 
	C692.236572,659.810608 690.941101,665.978027 688.918762,671.899475 
	C685.327209,682.415527 681.416443,692.768921 673.478210,701.101990 
	C663.245300,711.843811 650.722656,718.479919 636.695862,722.572571 
	C632.418762,723.820496 627.969177,724.477295 623.691956,725.724731 
	C622.341492,726.118591 621.294556,727.552917 620.108704,728.510986 
	C621.326050,729.382141 622.423279,730.640625 623.780212,731.061218 
	C632.138672,733.651550 640.555603,736.052734 649.660095,738.815674 
z"/>
<path fill="#6689D4" opacity="1.000000" stroke="none" 
	d="
M809.654053,650.068237 
	C813.557007,660.375671 821.153076,665.657837 831.158813,668.018433 
	C833.261902,668.514587 835.485657,668.739746 837.422852,669.606201 
	C838.535095,670.103699 839.879333,671.661865 839.845703,672.701355 
	C839.811584,673.757141 838.364197,674.998474 837.250488,675.715698 
	C836.341492,676.301086 835.020508,676.299255 833.867920,676.446228 
	C818.445618,678.413513 809.897278,687.481323 806.997681,702.404663 
	C806.648743,704.200256 806.603271,706.143738 805.840210,707.743530 
	C805.154541,709.180969 803.675171,710.239685 802.545898,711.465454 
	C801.393494,710.271790 799.739075,709.270142 799.193787,707.844299 
	C798.073914,704.915894 797.483276,701.774902 796.788635,698.695740 
	C793.859863,685.712769 785.242249,679.119080 772.634949,676.630798 
	C769.889709,676.088867 765.259155,677.198303 765.201477,672.617432 
	C765.143982,668.046326 769.829102,668.878296 772.530396,668.427063 
	C788.550049,665.751038 795.070190,654.740967 798.317627,640.376221 
	C798.925903,637.685669 797.945190,632.974182 802.620850,633.159729 
	C807.085022,633.336792 805.692078,637.962891 806.714355,640.668213 
	C807.827759,643.614380 808.578857,646.697510 809.654053,650.068237 
M797.049133,651.495850 
	C793.979614,659.337646 789.477661,665.671936 780.730652,668.002502 
	C776.764526,669.059265 772.949158,670.681885 769.065430,672.047852 
	C768.967285,672.625488 768.869202,673.203186 768.771118,673.780884 
	C789.683777,675.299194 798.563416,688.526611 801.599792,708.166321 
	C805.793152,699.229614 808.476624,691.120728 813.090210,684.321472 
	C818.140442,676.878540 827.396057,675.563477 835.889954,672.783997 
	C828.132751,668.830322 818.340698,668.221558 813.493774,660.442017 
	C808.986694,653.208008 805.995178,645.029663 802.014526,636.584106 
	C800.327393,641.548889 798.767517,646.139404 797.049133,651.495850 
z"/>
<path fill="#2C374B" opacity="1.000000" stroke="none" 
	d="
M1238.065430,1045.322510 
	C1244.077637,1044.324341 1247.772949,1048.306885 1251.698364,1051.484253 
	C1252.458374,1052.099365 1252.445068,1054.776001 1251.766113,1055.863892 
	C1249.315430,1059.791016 1249.159180,1062.858521 1253.662598,1065.311035 
	C1254.348267,1065.684326 1254.576294,1066.897949 1255.257080,1068.175049 
	C1253.969727,1068.446533 1252.981812,1068.995483 1252.265259,1068.750488 
	C1247.735107,1067.201660 1246.205811,1068.427490 1246.136597,1073.289917 
	C1246.112915,1074.955444 1245.427246,1077.179443 1244.237427,1078.067871 
	C1243.395752,1078.696411 1241.195679,1077.513428 1239.606689,1077.120239 
	C1239.462769,1077.084717 1239.369019,1076.852661 1239.224243,1076.812622 
	C1233.949585,1075.353271 1231.550781,1072.046875 1232.321045,1066.272705 
	C1233.996094,1059.231934 1235.938232,1052.439575 1238.065430,1045.322510 
z"/>
<path fill="#2A3447" opacity="1.000000" stroke="none" 
	d="
M1441.947144,971.616821 
	C1438.802734,970.466980 1435.458984,969.038208 1432.075073,967.253174 
	C1435.272461,968.377197 1438.510254,969.857605 1441.947144,971.616821 
z"/>
<path fill="#2A3447" opacity="1.000000" stroke="none" 
	d="
M1325.582886,961.901123 
	C1322.812012,963.211548 1319.657227,964.522522 1316.078613,965.700073 
	C1318.836182,964.344971 1322.017700,963.123291 1325.582886,961.901123 
z"/>
<path fill="#2A3447" opacity="1.000000" stroke="none" 
	d="
M1263.730957,1002.201843 
	C1263.203491,1003.348206 1262.386230,1004.629028 1261.204712,1005.926758 
	C1261.707275,1004.741150 1262.574219,1003.538757 1263.730957,1002.201843 
z"/>
<path fill="#2A3447" opacity="1.000000" stroke="none" 
	d="
M1330.712891,960.181702 
	C1330.421387,960.610046 1329.846069,961.001892 1329.119629,961.159790 
	C1329.455322,960.665588 1329.942139,960.405396 1330.712891,960.181702 
z"/>
<path fill="#FDFDFC" opacity="1.000000" stroke="none" 
	d="
M961.710632,1089.807007 
	C965.033875,1055.640503 988.966370,1028.793823 1020.080017,1023.937988 
	C1059.401855,1017.801086 1094.306274,1041.205322 1102.796509,1080.284180 
	C1109.291138,1110.177124 1103.355713,1137.289429 1079.522949,1157.932739 
	C1058.391235,1176.236450 1033.490967,1179.890747 1007.458618,1170.430542 
	C980.969482,1160.804565 966.586914,1140.495117 962.196777,1113.132202 
	C960.999512,1105.669800 961.785339,1097.889282 961.710632,1089.807007 
z"/>
<path fill="#FDFDFC" opacity="1.000000" stroke="none" 
	d="
M1625.960693,1093.162842 
	C1627.886719,1059.367188 1650.356201,1031.469116 1680.881226,1024.530151 
	C1723.197510,1014.910706 1763.923462,1043.663208 1769.071655,1086.800659 
	C1772.153687,1112.625000 1767.133179,1136.257446 1747.700684,1154.616699 
	C1726.765869,1174.395020 1701.582764,1180.294922 1674.137939,1171.421387 
	C1646.825195,1162.590454 1632.017212,1142.234497 1627.049561,1114.537354 
	C1625.827515,1107.724121 1626.260864,1100.614136 1625.960693,1093.162842 
z"/>
<path fill="#FDFDFC" opacity="1.000000" stroke="none" 
	d="
M1317.318481,1046.111450 
	C1318.514404,1044.675537 1319.710205,1043.239746 1320.986084,1041.500000 
	C1330.119751,1029.458862 1342.497070,1023.280884 1356.913818,1019.818359 
	C1368.905640,1017.408569 1380.449463,1017.862122 1392.257568,1021.170105 
	C1403.170532,1025.166260 1412.704834,1030.636597 1420.260010,1039.225586 
	C1428.652954,1048.766724 1433.633911,1059.725586 1434.709351,1072.891602 
	C1392.197388,1072.891602 1349.766235,1072.891602 1306.047363,1072.891602 
	C1308.894043,1065.164551 1311.532349,1058.003052 1314.216064,1050.469360 
	C1314.568237,1050.133545 1314.820190,1050.033081 1315.349731,1049.402344 
	C1316.227417,1048.043213 1316.772949,1047.077271 1317.318481,1046.111450 
z"/>
<path fill="#2C374B" opacity="1.000000" stroke="none" 
	d="
M1249.000732,1161.607544 
	C1245.359985,1159.351074 1242.194824,1156.569214 1241.840942,1151.464478 
	C1241.696289,1149.378052 1239.923096,1147.394043 1238.847778,1145.386597 
	C1238.224243,1144.222168 1237.515137,1143.103638 1236.278076,1141.002197 
	C1239.765747,1141.848877 1241.942993,1142.377319 1244.648926,1143.034180 
	C1244.781982,1143.730103 1244.739380,1145.156372 1245.353760,1146.193726 
	C1245.839111,1147.013550 1247.095337,1147.672241 1248.080322,1147.785645 
	C1248.635376,1147.849609 1249.630005,1146.777344 1249.916992,1146.022949 
	C1251.151489,1142.778442 1253.161011,1139.532593 1248.960938,1136.541992 
	C1248.114990,1135.939575 1248.838745,1133.132935 1248.838745,1130.605103 
	C1257.353149,1134.310547 1261.363525,1128.004150 1266.885498,1125.656738 
	C1266.881958,1125.213501 1266.878296,1124.770264 1266.874756,1124.326904 
	C1265.780884,1123.888794 1264.687622,1123.449463 1263.593140,1123.012817 
	C1262.155273,1122.438965 1260.716675,1121.867188 1259.278320,1121.294678 
	C1260.108276,1119.796143 1260.862671,1118.247803 1261.802979,1116.822021 
	C1262.219849,1116.189819 1263.012939,1115.805664 1263.406372,1115.491577 
	C1261.889893,1114.355835 1260.511353,1113.323364 1259.132812,1112.290894 
	C1260.767700,1111.193726 1262.305542,1109.893921 1264.062378,1109.051025 
	C1266.228149,1108.011841 1268.576538,1107.353271 1271.520996,1106.285400 
	C1268.478882,1102.171021 1266.963013,1098.153931 1272.117554,1095.459229 
	C1272.740112,1095.133667 1274.905884,1097.760132 1276.710815,1099.325928 
	C1281.576782,1098.767456 1287.386719,1098.317871 1293.101685,1097.323242 
	C1295.017578,1096.989746 1296.911621,1095.507446 1298.425293,1094.123291 
	C1300.758301,1091.989990 1302.861206,1090.743408 1306.389771,1091.400513 
	C1308.226807,1091.742432 1311.328857,1090.128052 1312.454224,1088.453003 
	C1314.848755,1084.889038 1316.325317,1080.708130 1318.360840,1076.392334 
	C1323.343994,1076.997803 1328.983032,1077.682983 1335.363037,1078.458130 
	C1338.285400,1084.530396 1337.876099,1085.606323 1330.836060,1089.104736 
	C1329.840088,1089.599731 1329.292358,1090.978149 1328.509277,1091.924561 
	C1326.471436,1094.387329 1324.417969,1096.837280 1322.276855,1099.404907 
	C1320.241577,1097.021240 1318.849365,1095.390747 1317.457275,1093.760254 
	C1317.106812,1093.990967 1316.756348,1094.221680 1316.406006,1094.452515 
	C1316.290283,1096.834351 1315.509399,1099.429199 1316.190308,1101.555908 
	C1317.880371,1106.834229 1312.180420,1111.791504 1315.746216,1117.130005 
	C1315.927979,1117.401978 1313.487427,1120.209106 1311.911743,1120.705322 
	C1308.799438,1121.685913 1305.437378,1121.874023 1301.200195,1122.544556 
	C1302.766602,1124.768188 1303.899658,1125.710815 1304.111206,1126.828003 
	C1304.456177,1128.648926 1304.786011,1130.903931 1303.991577,1132.358521 
	C1303.458252,1133.335327 1300.990601,1133.389038 1299.355957,1133.584473 
	C1298.257568,1133.715942 1296.264648,1132.964233 1296.098633,1133.304199 
	C1293.679688,1138.258667 1289.692139,1136.284546 1285.860840,1136.243164 
	C1284.182617,1136.225098 1282.470947,1138.525879 1280.788818,1139.792725 
	C1275.955078,1143.433105 1271.180176,1147.156372 1266.240723,1150.646851 
	C1265.535522,1151.145020 1263.807861,1150.910889 1262.961792,1150.373169 
	C1258.993042,1147.850952 1257.072388,1149.361694 1255.716553,1153.342163 
	C1255.334351,1154.464600 1253.515137,1155.018799 1252.638062,1156.069824 
	C1251.296753,1157.677124 1250.201294,1159.489746 1249.000732,1161.607544 
z"/>
<path fill="#2C374B" opacity="1.000000" stroke="none" 
	d="
M1249.034424,1162.284668 
	C1249.510498,1162.302612 1250.021118,1162.605347 1250.531616,1162.907959 
	C1250.349487,1163.117920 1250.167480,1163.327881 1249.985352,1163.537842 
	C1249.679810,1163.215088 1249.374390,1162.892334 1249.034424,1162.284668 
z"/>
<path fill="#4F81F9" opacity="1.000000" stroke="none" 
	d="
M618.000000,1234.995117 
	C603.666931,1235.001709 589.831360,1234.860107 576.002380,1235.100952 
	C571.598999,1235.177734 569.468567,1233.502319 567.896667,1229.487671 
	C562.893738,1216.710571 557.400024,1204.126343 552.321289,1191.377808 
	C548.394409,1181.520630 544.605042,1171.597534 541.156738,1161.565552 
	C539.563660,1156.930908 536.975037,1154.921631 532.093750,1154.964966 
	C486.469147,1155.368896 440.844025,1155.769165 395.218201,1155.935547 
	C380.593231,1155.988770 365.959320,1155.503296 351.342987,1154.924438 
	C346.544434,1154.734497 343.774261,1156.662842 342.113678,1160.816040 
	C337.708557,1171.833740 333.355194,1182.872314 328.926849,1193.880737 
	C323.925323,1206.313721 319.035187,1218.797729 313.647736,1231.062500 
	C312.829041,1232.926147 309.590820,1234.832642 307.458313,1234.847900 
	C274.794006,1235.082031 242.127518,1234.996338 209.461533,1235.012329 
	C205.597443,1235.014282 204.307190,1233.773560 205.990524,1229.822144 
	C211.774429,1216.245728 217.326874,1202.571045 223.000351,1188.947266 
	C235.407410,1159.154175 247.811996,1129.360107 260.261200,1099.584473 
	C269.096039,1078.453613 278.057373,1057.375610 286.857208,1036.230225 
	C292.754852,1022.058594 298.401489,1007.782471 304.281586,993.603455 
	C311.820343,975.424988 319.410034,957.266846 327.113922,939.157898 
	C332.148041,927.324646 337.658508,915.690430 342.539886,903.796509 
	C351.254669,882.561951 359.602173,861.177002 368.214294,839.899902 
	C371.427856,831.960449 374.870636,824.110291 378.367706,816.290466 
	C380.272491,812.031189 383.274292,809.841187 388.472046,809.871521 
	C424.636749,810.082581 460.803253,809.986206 496.969177,809.991211 
	C504.650238,809.992310 505.604156,810.701721 508.373352,817.720337 
	C514.821045,834.062134 521.205383,850.430420 527.834839,866.698608 
	C536.518921,888.008728 545.457886,909.214905 554.207458,930.498474 
	C564.728149,956.090271 575.255920,981.679871 585.603149,1007.341980 
	C591.473206,1021.900330 596.775452,1036.688721 602.710876,1051.219482 
	C612.588196,1075.400269 622.825317,1099.433960 632.807434,1123.572388 
	C645.219299,1153.586426 657.522461,1183.645508 669.881714,1213.681274 
	C671.703857,1218.109375 673.661133,1222.483643 675.403748,1226.942139 
	C677.285645,1231.757446 675.872314,1233.907837 670.875000,1234.006958 
	C653.416992,1234.353027 635.958374,1234.668335 618.000000,1234.995117 
M447.163269,928.242920 
	C445.489685,923.910461 443.816101,919.578003 441.701721,914.104309 
	C420.333618,968.267151 399.498047,1021.080139 378.512421,1074.273438 
	C421.117340,1074.273438 462.876678,1074.273438 504.918732,1074.273438 
	C485.614227,1025.464844 466.530731,977.214966 447.163269,928.242920 
z"/>
<path fill="#4E81FA" opacity="1.000000" stroke="none" 
	d="
M819.641479,809.970093 
	C824.546204,809.857361 826.934204,811.869019 827.055908,816.468872 
	C827.312866,826.182556 827.955017,835.895691 827.904663,845.606201 
	C827.741394,877.061584 827.313232,908.515503 827.038452,939.970398 
	C826.952148,949.851868 826.908386,959.736572 827.061523,969.616516 
	C827.230225,980.497559 827.887939,991.374634 827.889282,1002.253540 
	C827.890686,1012.972839 827.094971,1023.692261 827.094604,1034.411621 
	C827.094177,1045.290405 827.866882,1056.169067 827.878296,1067.048218 
	C827.889160,1077.424927 827.195679,1087.800903 827.119629,1098.179688 
	C827.072937,1104.557739 827.725342,1110.938110 827.833862,1117.321411 
	C827.906982,1121.624878 827.591309,1125.935547 827.416626,1130.241821 
	C827.390076,1130.896973 827.064697,1131.547852 827.079590,1132.196045 
	C827.325928,1142.910278 827.684143,1153.622803 827.826660,1164.338257 
	C827.868164,1167.458374 827.043884,1170.589600 827.081970,1173.710083 
	C827.218201,1184.869995 827.717163,1196.026855 827.758301,1207.186035 
	C827.786438,1214.811890 827.218506,1222.438232 827.041565,1230.067261 
	C826.952637,1233.907471 824.444336,1234.859009 821.408142,1234.923828 
	C814.826904,1235.064453 808.240845,1234.989258 801.656799,1234.991821 
	C780.160278,1235.000366 758.663757,1235.011597 737.167236,1235.005371 
	C730.721497,1235.003540 729.982666,1234.258423 729.980286,1227.832397 
	C729.969849,1199.170410 729.967102,1170.508301 729.966980,1141.846313 
	C729.966553,1034.108887 729.967957,926.371521 729.969604,818.634094 
	C729.969727,810.151428 730.156311,809.965942 738.697083,809.965881 
	C765.526245,809.965759 792.355347,809.968201 819.641479,809.970093 
z"/>
<path fill="#2A3447" opacity="1.000000" stroke="none" 
	d="
M1316.922363,1046.130371 
	C1316.772949,1047.077271 1316.227417,1048.043213 1315.404053,1049.198608 
	C1315.592896,1048.308472 1316.059570,1047.228882 1316.922363,1046.130371 
z"/>
<path fill="#4F81F9" opacity="1.000000" stroke="none" 
	d="
M649.306641,738.666260 
	C640.555603,736.052734 632.138672,733.651550 623.780212,731.061218 
	C622.423279,730.640625 621.326050,729.382141 620.108704,728.510986 
	C621.294556,727.552917 622.341492,726.118591 623.691956,725.724731 
	C627.969177,724.477295 632.418762,723.820496 636.695862,722.572571 
	C650.722656,718.479919 663.245300,711.843811 673.478210,701.101990 
	C681.416443,692.768921 685.327209,682.415527 688.918762,671.899475 
	C690.941101,665.978027 692.236572,659.810608 693.964050,653.783936 
	C694.244141,652.806946 695.070068,651.986389 696.592163,649.616943 
	C698.679810,656.546448 700.320190,662.088318 702.019165,667.612183 
	C706.927795,683.571289 712.704041,699.058716 727.006958,709.349792 
	C739.027405,717.998596 752.817078,722.503845 767.012756,726.019897 
	C768.397461,726.362854 769.580627,727.519470 770.857361,728.298340 
	C769.584534,729.357849 768.475098,730.908447 767.011719,731.395264 
	C759.038208,734.047852 750.729431,735.838257 742.995422,739.036438 
	C723.143433,747.246033 709.941956,761.703064 704.027283,782.600830 
	C701.929871,790.011353 699.416443,797.304138 696.725769,805.811523 
	C695.074097,803.983582 693.597168,803.056458 693.202576,801.791626 
	C691.341309,795.826416 689.747437,789.776489 688.111572,783.742310 
	C683.222778,765.708618 674.220276,750.866333 656.529358,742.658936 
	C654.156067,741.557861 651.945862,740.105408 649.306641,738.666260 
z"/>
<path fill="#4F81F9" opacity="1.000000" stroke="none" 
	d="
M797.128418,651.112915 
	C798.767517,646.139404 800.327393,641.548889 802.014526,636.584106 
	C805.995178,645.029663 808.986694,653.208008 813.493774,660.442017 
	C818.340698,668.221558 828.132751,668.830322 835.889954,672.783997 
	C827.396057,675.563477 818.140442,676.878540 813.090210,684.321472 
	C808.476624,691.120728 805.793152,699.229614 801.599792,708.166321 
	C798.563416,688.526611 789.683777,675.299194 768.771118,673.780884 
	C768.869202,673.203186 768.967285,672.625488 769.065430,672.047852 
	C772.949158,670.681885 776.764526,669.059265 780.730652,668.002502 
	C789.477661,665.671936 793.979614,659.337646 797.128418,651.112915 
z"/>
<path fill="#FDFDFC" opacity="1.000000" stroke="none" 
	d="
M447.305237,928.604004 
	C466.530731,977.214966 485.614227,1025.464844 504.918732,1074.273438 
	C462.876678,1074.273438 421.117340,1074.273438 378.512421,1074.273438 
	C399.498047,1021.080139 420.333618,968.267151 441.701721,914.104309 
	C443.816101,919.578003 445.489685,923.910461 447.305237,928.604004 
z"/>
</svg>